<svg viewBox="0 0 800 400" xmlns="http://www.w3.org/2000/svg">
  <!-- Gradient definitions -->
  <defs>
    <linearGradient id="scoreGradient" x1="0%" y1="0%" x2="100%" y2="100%">
      <stop offset="0%" style="stop-color:#4F46E5;stop-opacity:1" />
      <stop offset="100%" style="stop-color:#7C3AED;stop-opacity:1" />
    </linearGradient>
    <linearGradient id="lineGradient" x1="0%" y1="0%" x2="100%" y2="0%">
      <stop offset="0%" style="stop-color:#E5E7EB;stop-opacity:0.3" />
      <stop offset="50%" style="stop-color:#9CA3AF;stop-opacity:1" />
      <stop offset="100%" style="stop-color:#E5E7EB;stop-opacity:0.3" />
    </linearGradient>
    <filter id="glow">
      <feGaussianBlur stdDeviation="3" result="coloredBlur"/>
      <feMerge>
        <feMergeNode in="coloredBlur"/>
        <feMergeNode in="SourceGraphic"/>
      </feMerge>
    </filter>
  </defs>

  <!-- Input boxes -->
  <g id="inputs">
    <!-- Sleep Data -->
    <rect x="40" y="80" width="140" height="50" rx="8" fill="white" stroke="#E5E7EB" stroke-width="2"/>
    <!-- Moon icon for sleep -->
    <circle cx="60" cy="105" r="8" fill="none" stroke="#7C3AED" stroke-width="1.5"/>
    <path d="M 58 105 Q 62 101, 62 109" fill="#7C3AED" opacity="0.8"/>
    <text x="115" y="100" text-anchor="middle" font-family="system-ui, -apple-system" font-size="13" font-weight="500" fill="#6B7280">Sleep</text>
    <text x="115" y="118" text-anchor="middle" font-family="system-ui, -apple-system" font-size="20" font-weight="600" fill="#111827">7.5h</text>
    
    <!-- Energy Level -->
    <rect x="40" y="160" width="140" height="50" rx="8" fill="white" stroke="#E5E7EB" stroke-width="2"/>
    <!-- Battery icon -->
    <rect x="52" y="180" width="16" height="10" rx="1" fill="none" stroke="#7C3AED" stroke-width="1.5"/>
    <rect x="54" y="182" width="10" height="6" fill="#7C3AED" opacity="0.8"/>
    <rect x="68" y="183" width="2" height="4" fill="#7C3AED"/>
    <text x="115" y="180" text-anchor="middle" font-family="system-ui, -apple-system" font-size="13" font-weight="500" fill="#6B7280">Energy</text>
    <text x="115" y="198" text-anchor="middle" font-family="system-ui, -apple-system" font-size="20" font-weight="600" fill="#111827">8/10</text>
    
    <!-- Task Difficulty -->
    <rect x="40" y="240" width="140" height="50" rx="8" fill="white" stroke="#E5E7EB" stroke-width="2"/>
    <!-- Chart bars icon -->
    <rect x="52" y="270" width="4" height="8" fill="#7C3AED" rx="0.5"/>
    <rect x="57" y="266" width="4" height="12" fill="#7C3AED" rx="0.5" opacity="0.9"/>
    <rect x="62" y="262" width="4" height="16" fill="#7C3AED" rx="0.5" opacity="0.8"/>
    <rect x="67" y="268" width="4" height="10" fill="#7C3AED" rx="0.5" opacity="0.7"/>
    <text x="115" y="260" text-anchor="middle" font-family="system-ui, -apple-system" font-size="13" font-weight="500" fill="#6B7280">Tasks</text>
    <text x="115" y="278" text-anchor="middle" font-family="system-ui, -apple-system" font-size="20" font-weight="600" fill="#111827">Hard</text>
  </g>

  <!-- Connection lines -->
  <g id="connections">
    <path d="M 180 105 Q 280 105 300 185" fill="none" stroke="url(#lineGradient)" stroke-width="2" opacity="0.8"/>
    <path d="M 180 185 L 300 185" fill="none" stroke="url(#lineGradient)" stroke-width="2" opacity="0.8"/>
    <path d="M 180 265 Q 280 265 300 185" fill="none" stroke="url(#lineGradient)" stroke-width="2" opacity="0.8"/>
    
    <!-- Animated dots -->
    <circle r="3" fill="#4F46E5" opacity="0.8">
      <animateMotion dur="2s" repeatCount="indefinite">
        <mpath href="#path1"/>
      </animateMotion>
    </circle>
    <path id="path1" d="M 180 105 Q 280 105 300 185" fill="none"/>
    
    <circle r="3" fill="#4F46E5" opacity="0.8">
      <animateMotion dur="2s" repeatCount="indefinite" begin="0.5s">
        <mpath href="#path2"/>
      </animateMotion>
    </circle>
    <path id="path2" d="M 180 185 L 300 185" fill="none"/>
    
    <circle r="3" fill="#4F46E5" opacity="0.8">
      <animateMotion dur="2s" repeatCount="indefinite" begin="1s">
        <mpath href="#path3"/>
      </animateMotion>
    </circle>
    <path id="path3" d="M 180 265 Q 280 265 300 185" fill="none"/>
  </g>

  <!-- Central Algorithm Box -->
  <g id="algorithm">
    <rect x="300" y="145" width="180" height="80" rx="12" fill="white" stroke="#4F46E5" stroke-width="2" filter="url(#glow)"/>
    <text x="390" y="170" text-anchor="middle" font-family="system-ui, -apple-system" font-size="12" font-weight="600" fill="#6B7280" letter-spacing="1">aMCC ALGORITHM</text>
    
    <!-- Neural network visualization -->
    <g opacity="0.4">
      <circle cx="340" cy="195" r="4" fill="#4F46E5"/>
      <circle cx="360" cy="190" r="4" fill="#7C3AED"/>
      <circle cx="360" cy="200" r="4" fill="#7C3AED"/>
      <circle cx="380" cy="185" r="4" fill="#4F46E5"/>
      <circle cx="380" cy="195" r="4" fill="#4F46E5"/>
      <circle cx="380" cy="205" r="4" fill="#4F46E5"/>
      <circle cx="400" cy="190" r="4" fill="#7C3AED"/>
      <circle cx="400" cy="200" r="4" fill="#7C3AED"/>
      <circle cx="420" cy="195" r="4" fill="#4F46E5"/>
      
      <!-- Neural connections -->
      <line x1="340" y1="195" x2="360" y2="190" stroke="#E5E7EB" stroke-width="1"/>
      <line x1="340" y1="195" x2="360" y2="200" stroke="#E5E7EB" stroke-width="1"/>
      <line x1="360" y1="190" x2="380" y2="185" stroke="#E5E7EB" stroke-width="1"/>
      <line x1="360" y1="190" x2="380" y2="195" stroke="#E5E7EB" stroke-width="1"/>
      <line x1="360" y1="200" x2="380" y2="195" stroke="#E5E7EB" stroke-width="1"/>
      <line x1="360" y1="200" x2="380" y2="205" stroke="#E5E7EB" stroke-width="1"/>
      <line x1="380" y1="195" x2="400" y2="190" stroke="#E5E7EB" stroke-width="1"/>
      <line x1="380" y1="195" x2="400" y2="200" stroke="#E5E7EB" stroke-width="1"/>
      <line x1="400" y1="195" x2="420" y2="195" stroke="#E5E7EB" stroke-width="1"/>
    </g>
  </g>

  <!-- Output arrow -->
  <path d="M 480 185 L 540 185" fill="none" stroke="url(#lineGradient)" stroke-width="2"/>
  <polygon points="540,180 550,185 540,190" fill="#9CA3AF"/>

  <!-- Output Score -->
  <g id="output">
    <rect x="570" y="145" width="180" height="80" rx="12" fill="url(#scoreGradient)" stroke="none"/>
    <text x="660" y="170" text-anchor="middle" font-family="system-ui, -apple-system" font-size="12" font-weight="600" fill="white" opacity="0.9" letter-spacing="1">ENERGY SCORE</text>
    <text id="score-text" x="660" y="200" text-anchor="middle" font-family="system-ui, -apple-system" font-size="36" font-weight="700" fill="white">73</text>
    <text x="685" y="200" text-anchor="start" font-family="system-ui, -apple-system" font-size="20" font-weight="500" fill="white" opacity="0.8">/100</text>
    
    <!-- Subtle pulse animation on score -->
    <animateTransform
      attributeName="transform"
      type="scale"
      values="1;1.02;1"
      dur="3s"
      repeatCount="indefinite"
      additive="sum"/>
  </g>

  <!-- Bottom text -->
  <text x="400" y="350" text-anchor="middle" font-family="system-ui, -apple-system" font-size="14" font-weight="500" fill="#9CA3AF">
    Real-time analysis of your mental capacity based on neuroscience
  </text>
</svg>